<?xml version="1.0" encoding="utf-8"?>
<!-- Generator: Adobe Illustrator 20.1.0, SVG Export Plug-In . SVG Version: 6.00 Build 0)  -->
<svg version="1.1" id="Camada_1" xmlns="http://www.w3.org/2000/svg" xmlns:xlink="http://www.w3.org/1999/xlink" x="0px" y="0px"
	 width="346px" height="95.1px" viewBox="0 0 346 95.1" style="enable-background:new 0 0 346 95.1;" xml:space="preserve">
<style type="text/css">
	._x005B_Default_x005D_{fill:#FFFFFF;stroke:#211915;stroke-miterlimit:10;}
	.st0{fill:#211915;}
	.st1{fill-rule:evenodd;clip-rule:evenodd;fill:#F598A3;stroke:#211915;stroke-width:0.216;stroke-miterlimit:10;}
	.st2{fill-rule:evenodd;clip-rule:evenodd;fill:#211915;}
</style>
<g>
	<path class="st0" d="M13,85.5h-2.2c-0.1-0.9-0.4-1.4-1.1-1.9c-0.6-0.4-1.4-0.6-2.3-0.6c-1.3,0-2.3,0.4-3,1.3c-0.7,0.9-1,2.2-1,3.7
		c0,1.6,0.4,2.9,1,3.7c0.7,0.9,1.7,1.4,3,1.4c1,0,1.8-0.3,2.4-0.9c0.6-0.6,1-1.3,1.1-2.3H13c-0.1,1.5-0.6,2.8-1.7,3.7
		c-1.1,1-2.4,1.5-4.1,1.5c-1.9,0-3.5-0.6-4.5-1.9C1.5,91.9,1,90.2,1,88c0-2.2,0.6-4,1.7-5.3c1.2-1.2,2.7-1.9,4.7-1.9
		c1.7,0,3,0.4,4,1.2C12.3,82.9,12.8,84,13,85.5L13,85.5z M25.1,82.8c-1.4,0-2.4,0.5-3.1,1.4c-0.7,0.9-1.2,2.2-1.2,3.8
		c0,1.6,0.4,2.9,1.2,3.8c0.7,0.9,1.7,1.4,3.1,1.4c1.3,0,2.3-0.5,3-1.4c0.8-0.9,1.2-2.2,1.2-3.8c0-1.7-0.4-2.9-1.2-3.8
		C27.4,83.3,26.4,82.8,25.1,82.8L25.1,82.8z M25.1,80.9c1.9,0,3.5,0.6,4.7,1.9c1.2,1.2,1.7,3,1.7,5.2c0,2.2-0.6,4-1.7,5.2
		c-1.2,1.3-2.7,1.9-4.7,1.9c-2,0-3.6-0.6-4.8-1.9c-1.2-1.2-1.7-3-1.7-5.2c0-2.2,0.6-4,1.7-5.2C21.5,81.5,23,80.9,25.1,80.9
		L25.1,80.9z M47.4,85.2h-2.2c-0.1-0.8-0.4-1.4-0.9-1.8c-0.5-0.4-1.2-0.6-2.2-0.6c-0.7,0-1.3,0.1-1.7,0.5c-0.5,0.4-0.7,0.8-0.7,1.3
		c0,0.5,0.2,0.9,0.6,1.2c0.4,0.4,1.3,0.6,2.6,1c2,0.5,3.3,1.1,3.9,1.7c0.6,0.6,0.9,1.4,0.9,2.4c0,1.2-0.5,2.3-1.4,3
		c-0.9,0.8-2.2,1.2-3.8,1.2c-1.7,0-3-0.4-3.9-1.2c-0.9-0.9-1.4-2-1.5-3.5h2.2c0.1,0.9,0.4,1.6,1,2.1c0.6,0.4,1.4,0.7,2.4,0.7
		c0.7,0,1.4-0.2,1.9-0.6c0.5-0.4,0.7-0.9,0.7-1.4c0-0.2-0.1-0.5-0.2-0.7c-0.1-0.3-0.3-0.5-0.5-0.7c-0.4-0.4-1.2-0.6-2.4-0.9
		c-0.2-0.1-0.4-0.1-0.6-0.1c-1.5-0.4-2.6-0.9-3.2-1.5c-0.6-0.6-0.9-1.4-0.9-2.5c0-1.2,0.4-2,1.4-2.7c0.9-0.7,2.1-1.1,3.6-1.1
		c1.5,0,2.7,0.4,3.5,1.2C46.9,82.8,47.3,83.9,47.4,85.2L47.4,85.2z M53.9,81.2h3.2L60.4,92l3.3-10.8H67v13.5h-2.1V83.6l-3.4,11.1
		h-2.2L56,83.6v11.1h-2.1V81.2L53.9,81.2z M73.8,81.2h9.6v2H76v3.5h6.8v1.9H76v4h7.7v2h-9.9V81.2L73.8,81.2z M79.1,76.7h2.1
		l-2.7,3.2h-1.2L79.1,76.7L79.1,76.7z M88.6,81.2h10.6v2H95v11.4h-2.2V83.2h-4.2V81.2L88.6,81.2z M104.8,81.2h2.2v13.5h-2.2V81.2
		L104.8,81.2z M125.2,85.5H123c-0.1-0.9-0.5-1.4-1.1-1.9c-0.6-0.4-1.4-0.6-2.4-0.6c-1.3,0-2.3,0.4-3,1.3c-0.7,0.9-1.1,2.2-1.1,3.7
		c0,1.6,0.4,2.9,1.1,3.7c0.7,0.9,1.7,1.4,3,1.4c0.9,0,1.8-0.3,2.4-0.9c0.6-0.6,1-1.3,1.1-2.3h2.2c-0.1,1.5-0.6,2.8-1.7,3.7
		c-1.1,1-2.4,1.5-4.1,1.5c-1.9,0-3.4-0.6-4.5-1.9c-1.1-1.2-1.7-3-1.7-5.2c0-2.2,0.6-4,1.7-5.3c1.1-1.2,2.7-1.9,4.7-1.9
		c1.6,0,2.9,0.4,3.9,1.2C124.6,82.9,125.1,84,125.2,85.5L125.2,85.5z M137.3,82.8c-1.3,0-2.3,0.5-3.1,1.4c-0.7,0.9-1.1,2.2-1.1,3.8
		c0,1.6,0.4,2.9,1.1,3.8c0.8,0.9,1.8,1.4,3.1,1.4s2.3-0.5,3.1-1.4c0.7-0.9,1.1-2.2,1.1-3.8c0-1.7-0.4-2.9-1.1-3.8
		C139.6,83.3,138.6,82.8,137.3,82.8L137.3,82.8z M137.3,80.9c2,0,3.6,0.6,4.8,1.9c1.2,1.2,1.7,3,1.7,5.2c0,2.2-0.6,4-1.7,5.2
		c-1.2,1.3-2.7,1.9-4.8,1.9c-2,0-3.6-0.6-4.8-1.9c-1.2-1.2-1.7-3-1.7-5.2c0-2.2,0.6-4,1.7-5.2C133.7,81.5,135.3,80.9,137.3,80.9
		L137.3,80.9z M159.6,85.2h-2.2c0-0.8-0.3-1.4-0.9-1.8c-0.5-0.4-1.2-0.6-2.1-0.6c-0.7,0-1.4,0.1-1.8,0.5c-0.5,0.4-0.7,0.8-0.7,1.3
		c0,0.5,0.2,0.9,0.6,1.2c0.4,0.4,1.2,0.6,2.5,1c2,0.5,3.3,1.1,3.9,1.7c0.6,0.6,0.9,1.4,0.9,2.4c0,1.2-0.4,2.3-1.4,3
		c-0.9,0.8-2.2,1.2-3.7,1.2c-1.7,0-3-0.4-4-1.2c-0.9-0.9-1.4-2-1.5-3.5h2.2c0.1,0.9,0.4,1.6,0.9,2.1c0.6,0.4,1.4,0.7,2.4,0.7
		c0.8,0,1.4-0.2,1.9-0.6c0.5-0.4,0.8-0.9,0.8-1.4c0-0.2-0.1-0.5-0.2-0.7c-0.1-0.3-0.4-0.5-0.6-0.7c-0.4-0.4-1.1-0.6-2.3-0.9
		c-0.3-0.1-0.5-0.1-0.6-0.1c-1.5-0.4-2.5-0.9-3.2-1.5c-0.6-0.6-0.9-1.4-0.9-2.5c0-1.2,0.4-2,1.4-2.7c0.9-0.7,2.1-1.1,3.7-1.1
		c1.4,0,2.6,0.4,3.5,1.2C159.2,82.8,159.6,83.9,159.6,85.2z"/>
	<rect x="148.6" y="15.8" class="st1" width="44.8" height="39.4"/>
	<path class="st2" d="M19.4,9.1h4.8L33.8,0h-7.8L19.4,9.1L19.4,9.1z M0,59.3h45.6v-6.5H7.8V37.9h22.8v-6.2H7.8V18.6h37.4v-6.3H0
		V59.3L0,59.3z M71,59.3h7.8V41h30c6.8,0,9.9-2.6,9.9-9.1V21.5c0-6.6-3.1-9.1-9.9-9.1H71V59.3L71,59.3z M105.8,18.4
		c3.5,0,5.1,1,5.1,5V30c0,4-1.7,4.9-5.1,4.9H78.8V18.4H105.8L105.8,18.4z M144.1,23.5v24.8c0,8.7,2.6,11.1,11,11.1h32.4
		c8.4,0,10.9-2.4,10.9-11.1V23.5c0-8.6-2.4-11.1-10.9-11.1h-32.4C146.7,12.4,144.1,14.8,144.1,23.5L144.1,23.5z M151.8,52.8V18.7
		h38.8v34.1H151.8L151.8,52.8z M260.9,18.7v9.2h7.8v-4.5c0-8.7-2.4-11.1-10.9-11.1h-26.4c-8.4,0-11,2.4-11,11.1v24.8
		c0,8.6,2.6,11.1,11,11.1h26.4c8.4,0,10.9-2.4,10.9-11.1v-5.5h-7.8v10h-32.5V18.7H260.9L260.9,18.7z M285.8,59.3h7.7l6-11.6h31.8
		l6,11.6h8.6l-26.1-46.9h-8.4L285.8,59.3L285.8,59.3z M302.8,41.8l12.7-24l12.7,24H302.8z"/>
	<rect x="169.5" y="86.2" class="st2" width="3.4" height="3.4"/>
	<path class="st0" d="M188.1,83.2v4.2h2.9c0.9,0,1.6-0.1,1.9-0.5c0.4-0.3,0.6-0.9,0.6-1.6c0-0.7-0.2-1.3-0.6-1.7
		c-0.4-0.3-1-0.5-1.8-0.5H188.1L188.1,83.2z M185.8,81.2h5.2c0.8,0,1.4,0.1,1.8,0.1c0.4,0.1,0.8,0.2,1.1,0.4
		c0.6,0.4,1.1,0.8,1.4,1.4c0.3,0.6,0.4,1.4,0.4,2.2c0,0.7-0.1,1.4-0.4,1.9c-0.3,0.6-0.6,1.1-1.2,1.4c-0.4,0.2-0.7,0.4-1.2,0.5
		c-0.4,0.1-1.1,0.2-1.9,0.2h-3v5.3h-2.3V81.2L185.8,81.2z M202.5,81.2h9.7v2h-7.5v3.5h6.9v1.9h-6.9v4h7.7v2h-9.9V81.2L202.5,81.2z
		 M221.4,83.1v4.2h3.2c0.9,0,1.7-0.1,2-0.5c0.4-0.3,0.6-0.9,0.6-1.6c0-0.7-0.2-1.2-0.6-1.6c-0.4-0.3-1.1-0.5-2-0.5H221.4L221.4,83.1
		z M219.2,81.2h5.8c0.1,0,0.4,0,0.6,0c0.1,0,0.1,0.1,0.1,0.1c1.2,0,2.1,0.3,2.7,0.9c0.7,0.7,1.1,1.6,1.1,2.8c0,0.7-0.2,1.4-0.5,1.9
		c-0.4,0.5-0.9,0.9-1.4,1.2c0.5,0.1,0.9,0.4,1.2,0.9c0.2,0.4,0.4,1,0.4,1.9l0.1,1.9v0.1c0,0.8,0.2,1.3,0.5,1.5v0.4h-2.4
		c-0.1-0.1-0.2-0.4-0.3-0.6c0-0.3-0.1-0.6-0.1-1.2l-0.1-1.7c-0.1-0.9-0.2-1.4-0.6-1.7c-0.3-0.3-0.8-0.4-1.6-0.4h-0.4h-3v5.5h-2.2
		V81.2L219.2,81.2z M236.6,81.2h9.2v2h-7v3.6h6.1v1.9h-6.1v5.9h-2.2V81.2L236.6,81.2z M252.2,81.2h2.2v8.4c0,1.2,0.2,2,0.7,2.5
		c0.5,0.6,1.3,0.9,2.4,0.9c1,0,1.8-0.3,2.3-0.9c0.5-0.5,0.8-1.4,0.8-2.5v-8.4h2.2v8.5c0,1.7-0.5,3-1.4,4c-0.9,0.9-2.3,1.4-4,1.4
		c-1.8,0-3.1-0.5-4-1.4c-0.9-0.9-1.3-2.2-1.3-4V81.2L252.2,81.2z M270.2,81.2h3.2l3.2,10.8l3.3-10.8h3.2v13.5h-2.1V83.6l-3.4,11.1
		h-2.2l-3.3-11.1v11.1h-2.1V81.2L270.2,81.2z M295.4,83.5l-2,5.8h4L295.4,83.5L295.4,83.5z M294.2,81.2h2.5l5,13.5h-2.4l-1.2-3.5
		h-5.3l-1.2,3.5h-2.3L294.2,81.2L294.2,81.2z M309.8,83.1v4.2h3.2c0.9,0,1.6-0.1,2-0.5c0.4-0.3,0.6-0.9,0.6-1.6
		c0-0.7-0.2-1.2-0.6-1.6c-0.4-0.3-1-0.5-1.9-0.5H309.8L309.8,83.1z M307.7,81.2h5.8c0.2,0,0.4,0,0.6,0l0.1,0.1
		c1.2,0,2.2,0.3,2.8,0.9c0.6,0.7,1,1.6,1,2.8c0,0.7-0.1,1.4-0.5,1.9c-0.4,0.5-0.8,0.9-1.4,1.2c0.6,0.1,0.9,0.4,1.2,0.9
		c0.2,0.4,0.4,1,0.4,1.9l0.1,1.9v0.1c0.1,0.8,0.2,1.3,0.6,1.5v0.4h-2.5c-0.1-0.1-0.1-0.4-0.2-0.6c-0.1-0.3-0.1-0.6-0.1-1.2l-0.1-1.7
		c0-0.9-0.2-1.4-0.5-1.7c-0.3-0.3-0.9-0.4-1.6-0.4h-0.4h-3v5.5h-2.2V81.2L307.7,81.2z M325.2,81.2h2.2v13.5h-2.2V81.2L325.2,81.2z
		 M339.6,83.5l-2,5.8h4L339.6,83.5L339.6,83.5z M338.3,81.2h2.6l4.9,13.5h-2.4l-1.2-3.5H337l-1.2,3.5h-2.4L338.3,81.2z"/>
</g>
</svg>
